<svg width="491" height="41" viewBox="0 0 491 41" fill="none" xmlns="http://www.w3.org/2000/svg">
<g filter="url(#filter0_d_472_1311)">
<path d="M78.293 13.1975L74 17.9978L69.707 13.1975L68.293 14.7786L74 21.1599L79.707 14.7786L78.293 13.1975Z" fill="#312B89"/>
<path d="M22.966 11.8289V19.1609H20.938V11.8289H18.364V10.0739H25.54V11.8289H22.966ZM33.741 14.5719C33.741 13.7572 33.481 13.0639 32.961 12.4919C32.441 11.9199 31.7996 11.6339 31.037 11.6339C30.283 11.6339 29.646 11.9199 29.126 12.4919C28.606 13.0639 28.346 13.7572 28.346 14.5719C28.346 15.3779 28.606 16.0669 29.126 16.6389C29.646 17.2022 30.283 17.4839 31.037 17.4839C31.7996 17.4839 32.441 17.2022 32.961 16.6389C33.481 16.0669 33.741 15.3779 33.741 14.5719ZM34.43 17.9129C33.5113 18.8056 32.3803 19.2519 31.037 19.2519C29.6936 19.2519 28.5626 18.8056 27.644 17.9129C26.7253 17.0116 26.266 15.8936 26.266 14.5589C26.266 13.2242 26.7253 12.1106 27.644 11.2179C28.5626 10.3166 29.6936 9.86589 31.037 9.86589C32.3803 9.86589 33.5113 10.3166 34.43 11.2179C35.3486 12.1106 35.808 13.2242 35.808 14.5589C35.808 15.8936 35.3486 17.0116 34.43 17.9129ZM40.7372 10.0739C42.3579 10.0739 43.6015 10.4726 44.4682 11.2699C45.3349 12.0586 45.7682 13.1592 45.7682 14.5719C45.7682 15.9846 45.3435 17.1026 44.4942 17.9259C43.6535 18.7492 42.3665 19.1609 40.6332 19.1609H37.5262V10.0739H40.7372ZM40.8412 17.3669C41.7685 17.3669 42.4792 17.1329 42.9732 16.6649C43.4759 16.1969 43.7272 15.5166 43.7272 14.6239C43.7272 13.7312 43.4759 13.0466 42.9732 12.5699C42.4792 12.0846 41.7165 11.8419 40.6852 11.8419H39.5542V17.3669H40.8412ZM54.4724 14.5719C54.4724 13.7572 54.2124 13.0639 53.6924 12.4919C53.1724 11.9199 52.5311 11.6339 51.7684 11.6339C51.0144 11.6339 50.3774 11.9199 49.8574 12.4919C49.3374 13.0639 49.0774 13.7572 49.0774 14.5719C49.0774 15.3779 49.3374 16.0669 49.8574 16.6389C50.3774 17.2022 51.0144 17.4839 51.7684 17.4839C52.5311 17.4839 53.1724 17.2022 53.6924 16.6389C54.2124 16.0669 54.4724 15.3779 54.4724 14.5719ZM55.1614 17.9129C54.2427 18.8056 53.1117 19.2519 51.7684 19.2519C50.4251 19.2519 49.2941 18.8056 48.3754 17.9129C47.4567 17.0116 46.9974 15.8936 46.9974 14.5589C46.9974 13.2242 47.4567 12.1106 48.3754 11.2179C49.2941 10.3166 50.4251 9.86589 51.7684 9.86589C53.1117 9.86589 54.2427 10.3166 55.1614 11.2179C56.0801 12.1106 56.5394 13.2242 56.5394 14.5589C56.5394 15.8936 56.0801 17.0116 55.1614 17.9129Z" fill="#621CED"/>
<path d="M460 26.2877C461.775 26.2873 463.499 25.6229 464.897 24.4003L469.293 29.3157L470.707 27.7346L466.311 22.8192C467.405 21.2557 468 19.3277 468 17.3425C468 12.4103 464.411 8.39722 460 8.39722C455.589 8.39722 452 12.4103 452 17.3425C452 22.2747 455.589 26.2877 460 26.2877ZM460 10.6335C463.309 10.6335 466 13.6425 466 17.3425C466 21.0425 463.309 24.0514 460 24.0514C456.691 24.0514 454 21.0425 454 17.3425C454 13.6425 456.691 10.6335 460 10.6335Z" fill="#312B89"/>
</g>
<path d="M473.5 32.9966H80C99 20.1378 88.5 5.0427 80 1.68823H473.5C489.5 2.80639 495 29.0831 473.5 32.9966Z" stroke="#6C63FF" stroke-width="2"/>
<rect x="1" y="2.50464" width="87" height="30.4266" rx="14" stroke="#6C63FF" stroke-width="2"/>
<defs>
<filter id="filter0_d_472_1311" x="0" y="0.570068" width="495" height="40.4265" filterUnits="userSpaceOnUse" color-interpolation-filters="sRGB">
<feFlood flood-opacity="0" result="BackgroundImageFix"/>
<feColorMatrix in="SourceAlpha" type="matrix" values="0 0 0 0 0 0 0 0 0 0 0 0 0 0 0 0 0 0 127 0" result="hardAlpha"/>
<feOffset dy="4"/>
<feGaussianBlur stdDeviation="2"/>
<feComposite in2="hardAlpha" operator="out"/>
<feColorMatrix type="matrix" values="0 0 0 0 0 0 0 0 0 0 0 0 0 0 0 0 0 0 0.25 0"/>
<feBlend mode="normal" in2="BackgroundImageFix" result="effect1_dropShadow_472_1311"/>
<feBlend mode="normal" in="SourceGraphic" in2="effect1_dropShadow_472_1311" result="shape"/>
</filter>
</defs>
</svg>
