<svg width="114" height="106" viewBox="0 0 114 106" fill="none" xmlns="http://www.w3.org/2000/svg">
<path d="M17.5599 47.4647C17.9394 47.2358 18.3032 47.134 18.6511 47.1594C19.0148 47.1849 19.2758 47.2803 19.4339 47.4456C19.6079 47.5983 19.6316 47.7827 19.5051 47.999C19.3944 48.2152 19.0623 48.3996 18.5088 48.5523C18.3032 48.6413 18.0897 48.7622 17.8683 48.9148C17.6468 49.0547 17.4966 49.2392 17.4175 49.4681C17.3384 49.7352 17.4808 49.9451 17.8445 50.0978C18.2241 50.2504 18.7144 50.3458 19.3153 50.384C19.9479 50.4349 20.6201 50.4221 21.3317 50.3458C22.0592 50.2695 22.6918 50.1296 23.2295 49.926C23.4826 49.837 23.6645 49.8052 23.7752 49.8306C23.9017 49.8561 23.9729 49.9133 23.9887 50.0024C24.0045 50.0787 23.9729 50.1677 23.8938 50.2695C23.8305 50.3585 23.7356 50.4221 23.6091 50.4603C22.85 50.7528 22.0434 50.9691 21.1894 51.109C20.3354 51.2362 19.513 51.2426 18.7223 51.1281C17.9631 51.0136 17.4017 50.7846 17.038 50.4412C16.6742 50.0978 16.5556 49.7162 16.6821 49.2964C16.4133 49.5381 16.0732 49.8561 15.6621 50.2504C15.2509 50.632 14.816 51.0518 14.3573 51.5097C13.9145 51.9676 13.4559 52.4382 12.9814 52.9216C12.5228 53.3922 12.0958 53.8374 11.7004 54.2572C11.305 54.677 10.965 55.0458 10.6803 55.3638C10.3956 55.6818 10.2059 55.9108 10.111 56.0507C9.93701 56.2288 9.75514 56.3751 9.56536 56.4896C9.3914 56.604 9.20162 56.6613 8.99602 56.6613C8.72716 56.6613 8.51366 56.5977 8.35551 56.4705C8.19736 56.356 8.07084 56.2097 7.97595 56.0316C7.86525 55.8536 7.78617 55.6628 7.73873 55.4592C7.69128 55.2557 7.65965 55.0649 7.64384 54.8868C7.56476 54.3908 7.54894 53.8565 7.59639 53.2841C7.64383 52.7117 7.74663 52.152 7.90478 51.6051C8.04712 51.0454 8.24481 50.5239 8.49785 50.0405C8.73507 49.5444 9.02765 49.1374 9.37558 48.8194C9.62862 48.5904 9.89748 48.4442 10.1821 48.3806C10.4668 48.3042 10.7199 48.2915 10.9413 48.3424C11.1627 48.3933 11.3287 48.5014 11.4394 48.6668C11.5501 48.8194 11.566 48.9975 11.4869 49.201C11.3446 49.5826 11.139 50.0342 10.8701 50.5557C10.6012 51.0645 10.3324 51.5987 10.0635 52.1584C9.81049 52.7054 9.58118 53.246 9.37558 53.7802C9.1858 54.3144 9.0751 54.7978 9.04347 55.2303C9.04347 55.2557 9.04347 55.3002 9.04347 55.3638C9.04347 55.4147 9.05137 55.4592 9.06719 55.4974C9.083 55.5356 9.10673 55.561 9.13836 55.5737C9.1858 55.5737 9.24906 55.5356 9.32814 55.4592C9.37558 55.4084 9.55745 55.2112 9.87375 54.8678C10.1901 54.5116 10.5854 54.0791 11.0599 53.5703C11.5501 53.0488 12.0958 52.4828 12.6967 51.8722C13.2977 51.2489 13.8908 50.6511 14.4759 50.0787C15.0769 49.4936 15.6462 48.9721 16.184 48.5141C16.7217 48.0435 17.1803 47.6937 17.5599 47.4647ZM23.613 49.0102C23.8977 48.794 24.1823 48.654 24.467 48.5904C24.7517 48.5141 24.9968 48.5014 25.2024 48.5523C25.4238 48.6032 25.582 48.7049 25.6769 48.8576C25.7876 49.0102 25.8034 49.1883 25.7243 49.3918C25.4554 50.0405 25.2894 50.6002 25.2261 51.0708C25.1629 51.5415 25.1787 51.9358 25.2736 52.2538C25.3685 52.5591 25.5345 52.8008 25.7717 52.9788C26.009 53.1569 26.2936 53.2778 26.6258 53.3414C27.1951 53.4431 27.8672 53.405 28.6422 53.2269C29.4329 53.0361 30.2237 52.7626 31.0144 52.4064C31.821 52.0503 32.5801 51.6496 33.2918 51.2044C34.0035 50.7592 34.5728 50.3331 34.9998 49.926C35.158 49.748 35.3319 49.6335 35.5217 49.5826C35.7115 49.5317 35.8617 49.5317 35.9724 49.5826C36.099 49.6335 36.1543 49.7352 36.1385 49.8879C36.1227 50.0278 35.9962 50.1995 35.7589 50.403C35.237 50.8991 34.6044 51.3888 33.8611 51.8722C33.1336 52.3556 32.3429 52.7753 31.4889 53.1315C30.6349 53.4876 29.7492 53.7611 28.832 53.9519C27.9305 54.1427 27.0449 54.2 26.175 54.1236C25.4634 54.0728 24.8624 53.8756 24.3721 53.5322C23.8977 53.176 23.5497 52.7499 23.3283 52.2538C23.1069 51.7577 23.0199 51.2235 23.0674 50.6511C23.099 50.0787 23.2809 49.5317 23.613 49.0102ZM24.6093 46.568C24.6726 46.3517 24.7912 46.1546 24.9652 45.9765C25.155 45.7984 25.3526 45.6521 25.5582 45.5376C25.7797 45.4232 25.9932 45.3596 26.1988 45.3468C26.4043 45.3214 26.5546 45.3659 26.6495 45.4804C26.7602 45.5822 26.7997 45.7602 26.7681 46.0146C26.7365 46.269 26.5941 46.6125 26.3411 47.045C26.1988 47.2358 26.009 47.3693 25.7717 47.4456C25.5345 47.5092 25.3131 47.522 25.1075 47.4838C24.9177 47.4456 24.7596 47.3502 24.6331 47.1976C24.5224 47.045 24.5145 46.8351 24.6093 46.568ZM49.71 50.403C49.4728 50.6447 49.1644 50.95 48.7849 51.3189C48.4053 51.6878 47.9704 52.0821 47.4801 52.5018C46.9898 52.9216 46.4521 53.3477 45.867 53.7802C45.2976 54.2127 44.7046 54.6197 44.0878 55.0013C43.471 55.3702 42.8384 55.6882 42.19 55.9553C41.5416 56.2224 40.9011 56.4005 40.2685 56.4896C39.6991 56.5659 39.1219 56.5468 38.5367 56.4323C37.9674 56.3178 37.485 56.0571 37.0896 55.65C36.7892 55.3066 36.6152 54.925 36.5677 54.5052C36.5361 54.0855 36.5757 53.6657 36.6864 53.246C36.8129 52.8262 36.9868 52.4255 37.2083 52.0439C37.4455 51.6496 37.6985 51.3125 37.9674 51.0327C37.6511 51.0708 37.3269 51.0645 36.9948 51.0136C36.6626 50.9627 36.3463 50.88 36.0458 50.7656C35.7612 50.6384 35.5081 50.4857 35.2867 50.3076C35.0653 50.1168 34.923 49.9006 34.8597 49.6589C34.7965 49.4045 34.8439 49.1183 35.0021 48.8003C35.1602 48.4696 35.4686 48.1898 35.9272 47.9608C36.1012 47.8845 36.2752 47.84 36.4491 47.8272C36.6389 47.8145 36.805 47.8272 36.9473 47.8654C37.1055 47.9036 37.232 47.9672 37.3269 48.0562C37.4376 48.1325 37.5008 48.2279 37.5166 48.3424C37.5483 48.4569 37.5166 48.5586 37.4218 48.6477C37.3427 48.724 37.2399 48.8003 37.1134 48.8766C37.0027 48.9402 36.8999 48.9975 36.805 49.0484C36.7101 49.0992 36.6705 49.1438 36.6864 49.1819C36.718 49.3091 36.8366 49.43 37.0422 49.5444C37.2478 49.6462 37.485 49.748 37.7539 49.8497C38.0227 49.9515 38.2916 50.0469 38.5604 50.1359C38.8293 50.225 39.0428 50.3077 39.2009 50.384C39.5647 50.5748 39.794 50.791 39.8889 51.0327C39.9996 51.2616 40.0233 51.5097 39.9601 51.7768C39.8968 52.0312 39.7782 52.2983 39.6042 52.5782C39.4461 52.8453 39.2721 53.1188 39.0823 53.3986C38.9084 53.6657 38.7502 53.9265 38.6079 54.1809C38.4814 54.4353 38.4181 54.6706 38.4181 54.8868C38.4181 55.1031 38.4814 55.2748 38.6079 55.402C38.7502 55.5292 38.9242 55.6182 39.1298 55.6691C39.3354 55.7327 39.5647 55.7582 39.8177 55.7454C40.0708 55.7454 40.308 55.7264 40.5294 55.6882C41.0513 55.5864 41.589 55.402 42.1425 55.1349C42.7119 54.8678 43.2733 54.5561 43.8268 54.2C44.3804 53.8311 44.9181 53.4368 45.44 53.017C45.9619 52.5972 46.4442 52.1902 46.8871 51.7959C47.3299 51.4016 47.7252 51.039 48.0732 50.7083C48.4369 50.3776 48.7295 50.1168 48.9509 49.926C49.1407 49.7607 49.3305 49.6589 49.5203 49.6208C49.71 49.5699 49.8603 49.5699 49.971 49.6208C50.0817 49.6589 50.1212 49.748 50.0896 49.8879C50.0738 50.0278 49.9473 50.1995 49.71 50.403ZM38.9136 42.3513C39.4197 42.4149 39.91 42.4658 40.3844 42.5039C40.8431 42.5421 41.3017 42.5739 41.7603 42.5993C43.3418 42.6629 44.9313 42.6566 46.5286 42.5802C48.1101 42.5039 49.6996 42.3958 51.2969 42.2559C51.6764 41.2256 52.0797 40.2334 52.5067 39.2794C52.9337 38.3254 53.3686 37.435 53.8115 36.6082C54.2543 35.7814 54.705 35.0309 55.1637 34.3568C55.6223 33.6699 56.0888 33.0848 56.5633 32.6014C56.8954 32.2452 57.275 31.9845 57.702 31.8191C58.1448 31.6538 58.5481 31.6092 58.9118 31.6856C59.2756 31.7619 59.5681 31.9654 59.7895 32.2961C60.011 32.6268 60.0821 33.1038 60.003 33.7271C59.924 34.2741 59.75 34.8719 59.4812 35.5206C59.2123 36.1694 58.8802 36.8499 58.4848 37.5622C58.0894 38.2618 57.6387 38.9805 57.1326 39.7182C56.6424 40.456 56.1363 41.1874 55.6144 41.9124C56.5633 41.8361 57.5913 41.7534 58.6983 41.6644C59.8212 41.5754 60.9678 41.5054 62.1381 41.4545C63.3084 41.3909 64.4708 41.3591 65.6253 41.3591C66.7954 41.3464 67.9025 41.3846 68.9462 41.4736C69.9426 41.5754 70.852 41.728 71.6743 41.9315C72.4967 42.1223 73.1847 42.3958 73.7382 42.752C73.9438 42.8919 74.0071 43.0509 73.928 43.229C73.8647 43.3943 73.7303 43.5279 73.5247 43.6296C73.3191 43.7187 73.0898 43.7441 72.8367 43.706C72.5837 43.6551 72.3781 43.4897 72.22 43.2099C71.9986 42.8028 71.5795 42.4976 70.9627 42.294C70.3617 42.0778 69.6342 41.9315 68.7802 41.8552C67.8471 41.7789 66.7954 41.7662 65.6253 41.817C64.4708 41.8552 63.2847 41.9252 62.0669 42.0269C60.8492 42.1287 59.6393 42.2495 58.4374 42.3894C57.2512 42.5294 56.16 42.6438 55.1637 42.7329C55.1162 42.7456 55.0609 42.752 54.9976 42.752C54.4915 43.4007 54.0012 44.024 53.5268 44.6218C53.0523 45.2196 52.6095 45.773 52.1983 46.2818C51.9295 46.8287 51.6369 47.4647 51.3206 48.1898C51.0201 48.9148 50.7196 49.6907 50.4191 50.5175C50.1187 51.3443 49.834 52.2029 49.5651 53.0933C49.3121 53.9837 49.0907 54.8614 48.9008 55.7264C48.6952 56.5913 48.5371 57.4181 48.4264 58.2068C48.3157 59.0081 48.2761 59.7332 48.3078 60.3819C48.3394 61.3995 48.545 62.2326 48.9246 62.8814C49.3042 63.5301 49.8972 64.0389 50.7038 64.4078C50.9885 64.5477 51.1308 64.7003 51.1308 64.8657C51.1466 65.0311 51.0597 65.1646 50.8699 65.2664C50.6801 65.3681 50.4191 65.4063 50.087 65.3809C49.7707 65.3554 49.4307 65.2091 49.067 64.942C48.5608 64.535 48.1812 63.9435 47.9282 63.1676C47.6594 62.4044 47.5091 61.5076 47.4775 60.4773C47.43 59.4088 47.4854 58.1813 47.6435 56.7949C47.8017 55.4211 48.0389 53.971 48.3552 52.4446C48.6715 50.9182 49.0511 49.3536 49.494 47.7509C49.9526 46.1355 50.4587 44.5646 51.0122 43.0382C49.5572 43.1145 48.0943 43.1654 46.6235 43.1908C45.1527 43.2162 43.6502 43.1972 42.1162 43.1336C41.2305 43.1081 40.4398 43.0636 39.7439 43C39.0323 42.9364 38.4471 42.8537 37.9885 42.752C37.7038 42.6375 37.5456 42.4912 37.514 42.3131C37.4824 42.135 37.5298 41.9951 37.6563 41.8934C37.7829 41.7789 37.9647 41.7471 38.202 41.798C38.4392 41.8361 38.6764 42.0206 38.9136 42.3513ZM56.3261 36.4365C55.7883 37.2378 55.2823 38.1219 54.8078 39.0886C54.3492 40.0426 53.9301 41.0348 53.5505 42.0651L54.2385 42.0078C54.8553 41.1302 55.4562 40.2398 56.0414 39.3366C56.6265 38.4208 57.1326 37.5368 57.5596 36.6845C57.9866 35.8832 58.2476 35.2917 58.3425 34.9101C58.4532 34.5158 58.4374 34.3122 58.295 34.2995C58.1527 34.2868 57.9076 34.4649 57.5596 34.8338C57.2117 35.2026 56.8005 35.7369 56.3261 36.4365ZM53.6454 42.8664C53.5821 42.8664 53.5189 42.8728 53.4556 42.8855C53.3924 42.8855 53.3291 42.8855 53.2658 42.8855C53.2026 43.0382 53.1472 43.1908 53.0998 43.3434C53.0523 43.4961 53.0049 43.6487 52.9575 43.8014L53.6454 42.8664ZM58.637 48.8003C58.5579 49.0166 58.4076 49.3409 58.1862 49.7734C57.9648 50.2059 57.7197 50.6638 57.4508 51.1472C57.1978 51.6305 56.9527 52.1075 56.7154 52.5782C56.494 53.0488 56.3517 53.4304 56.2884 53.723C56.241 53.9265 56.241 54.0728 56.2884 54.1618C56.3517 54.2381 56.4387 54.2763 56.5494 54.2763C56.6601 54.2763 56.7866 54.2445 56.9289 54.1809C57.0871 54.1046 57.2294 54.0219 57.3559 53.9329C57.7039 53.7039 58.0676 53.3859 58.4472 52.9788C58.8267 52.5718 59.1826 52.1648 59.5147 51.7577C59.8626 51.3507 60.1631 50.9882 60.4161 50.6702C60.685 50.3394 60.8669 50.1359 60.9618 50.0596C61.2306 49.8815 61.5074 49.7861 61.7921 49.7734C62.0767 49.7607 62.3219 49.8052 62.5275 49.907C62.7489 49.996 62.8991 50.1359 62.9782 50.3267C63.0573 50.5048 63.0335 50.702 62.907 50.9182C62.306 51.9231 62.0056 52.7372 62.0056 53.3604C62.0056 53.971 62.2823 54.3272 62.8359 54.4289C63.2154 54.4544 63.6266 54.3971 64.0694 54.2572C64.5122 54.1173 64.963 53.9265 65.4216 53.6848C65.8959 53.4304 66.3625 53.1442 66.8211 52.8262C67.2797 52.4955 67.7226 52.1648 68.1496 51.8341C68.5766 51.4906 68.972 51.1535 69.3357 50.8228C69.6994 50.4921 70.0157 50.1932 70.2846 49.926C70.4428 49.748 70.6167 49.6335 70.8065 49.5826C70.9963 49.5317 71.1465 49.5317 71.2572 49.5826C71.3837 49.6335 71.4391 49.7352 71.4233 49.8879C71.4075 50.0278 71.2809 50.1995 71.0437 50.403C70.5376 50.8991 69.9525 51.4334 69.2883 52.0058C68.6398 52.5782 67.944 53.106 67.2007 53.5894C66.4574 54.0728 65.6746 54.4734 64.8523 54.7914C64.0299 55.0967 63.1917 55.2303 62.3377 55.1921C61.8 55.1667 61.3651 55.0713 61.0329 54.9059C60.7166 54.7406 60.4873 54.5307 60.345 54.2763C60.2027 54.0219 60.1473 53.7357 60.1789 53.4177C60.2264 53.087 60.3529 52.7372 60.5585 52.3683C60.1947 52.7372 59.8152 53.1061 59.4198 53.4749C59.0402 53.8438 58.637 54.1618 58.21 54.4289C57.7988 54.6833 57.3639 54.8614 56.9052 54.9632C56.4466 55.0522 55.98 55.0013 55.5056 54.8105C55.1735 54.6833 54.9283 54.5116 54.7702 54.2954C54.612 54.0791 54.5092 53.8438 54.4618 53.5894C54.3985 53.3223 54.3827 53.0615 54.4143 52.8071C54.446 52.54 54.4934 52.292 54.5567 52.063C54.6674 51.6433 54.8176 51.2298 55.0074 50.8228C55.1814 50.4158 55.3632 50.0342 55.553 49.678C55.7586 49.3091 55.9563 48.9848 56.1461 48.7049C56.3359 48.4124 56.5098 48.1771 56.668 47.999C56.9052 47.7446 57.1583 47.5856 57.4271 47.522C57.696 47.4456 57.9332 47.452 58.1388 47.541C58.3602 47.6301 58.5183 47.7827 58.6132 47.999C58.7239 48.2152 58.7319 48.4823 58.637 48.8003ZM69.2883 54.3526C69.1301 54.0982 69.0352 53.8184 69.0036 53.5131C68.9561 53.1951 68.9561 52.8771 69.0036 52.5591C69.0352 52.2411 69.1143 51.9294 69.2408 51.6242C69.3515 51.3062 69.4859 51.0136 69.6441 50.7465C69.9446 50.2504 70.332 49.7988 70.8065 49.3918C71.2968 48.9848 71.8424 48.654 72.4433 48.3996C73.0443 48.1452 73.6927 47.9799 74.3886 47.9036C75.0845 47.8272 75.7961 47.8718 76.5236 48.0371C76.7292 48.1516 76.8241 48.2724 76.8083 48.3996C76.8083 48.5268 76.7371 48.635 76.5948 48.724C76.4683 48.8003 76.2943 48.8448 76.0729 48.8576C75.8515 48.8576 75.638 48.8003 75.4324 48.6858C74.9579 48.495 74.5309 48.4442 74.1514 48.5332C73.7718 48.6095 73.4239 48.7812 73.1076 49.0484C72.8071 49.3028 72.5461 49.6271 72.3247 50.0214C72.1033 50.403 71.9215 50.8037 71.7791 51.2235C71.6526 51.6432 71.5577 52.0503 71.4944 52.4446C71.4312 52.8389 71.4075 53.1696 71.4233 53.4368C71.4549 53.7675 71.5893 53.971 71.8266 54.0473C72.0638 54.1109 72.3485 54.0092 72.6806 53.742C72.8862 53.5767 73.0839 53.3668 73.2736 53.1124C73.4634 52.8453 73.6216 52.5718 73.7481 52.292C73.8904 52.0121 74.0011 51.7514 74.0802 51.5097C74.1751 51.2553 74.2304 51.0518 74.2463 50.8991C73.756 50.7719 73.416 50.6193 73.2262 50.4412C73.0364 50.2504 72.9494 50.066 72.9652 49.8879C72.9811 49.7098 73.068 49.5572 73.2262 49.43C73.3843 49.3028 73.5662 49.2328 73.7718 49.2201C73.9774 49.2074 74.183 49.2773 74.3886 49.43C74.5942 49.5826 74.7523 49.8497 74.8631 50.2313C75.3691 50.2949 75.9147 50.3331 76.4999 50.3458C77.1009 50.3458 77.7019 50.3331 78.3028 50.3076C78.9038 50.2822 79.4889 50.2377 80.0583 50.1741C80.6434 50.1105 81.1812 50.0278 81.6714 49.926C82.2249 49.8116 82.5887 49.7861 82.7627 49.8497C82.9524 49.9006 83.0315 49.9833 82.9999 50.0978C82.9683 50.2122 82.8575 50.3331 82.6678 50.4603C82.4938 50.5875 82.3277 50.6638 82.1696 50.6892C81.6635 50.791 81.11 50.88 80.509 50.9564C79.9239 51.02 79.315 51.0645 78.6824 51.0899C78.0498 51.1154 77.4172 51.1217 76.7846 51.109C76.1678 51.0963 75.5826 51.0581 75.0291 50.9945C75.0291 51.2744 74.9817 51.5796 74.8868 51.9104C74.8077 52.2284 74.6891 52.5527 74.5309 52.8834C74.3886 53.2014 74.1988 53.5131 73.9616 53.8184C73.7402 54.1109 73.4792 54.3653 73.1787 54.5816C72.9257 54.7724 72.6094 54.9314 72.2298 55.0586C71.8661 55.1731 71.4944 55.2303 71.1149 55.2303C70.7511 55.2303 70.4032 55.1603 70.0711 55.0204C69.739 54.8805 69.478 54.6579 69.2883 54.3526ZM95.3942 50.5366C94.9831 50.7274 94.4928 50.9627 93.9235 51.2426C93.3541 51.5097 92.7373 51.8086 92.0731 52.1393C91.4247 52.4573 90.7288 52.8008 89.9855 53.1696C89.258 53.5385 88.5226 53.9265 87.7793 54.3335C88.4752 55.1349 88.7203 55.9999 88.5147 56.9284C88.3091 57.857 87.803 58.8173 86.9965 59.8095C86.5695 60.331 86.0713 60.8271 85.502 61.2977C84.9484 61.7684 84.3633 62.1818 83.7465 62.5379C83.1455 62.9068 82.5366 63.1994 81.9199 63.4156C81.3189 63.6318 80.7574 63.74 80.2355 63.74C79.7927 63.74 79.3894 63.6955 79.0257 63.6064C78.6461 63.5174 78.3298 63.3775 78.0768 63.1867C77.8079 63.0086 77.6182 62.7733 77.5075 62.4807C77.3809 62.2009 77.3493 61.8638 77.4126 61.4695C77.5075 60.8971 77.8158 60.2992 78.3377 59.6759C78.8596 59.0527 79.516 58.423 80.3067 57.787C81.0975 57.1637 81.991 56.5404 82.9874 55.9172C83.9837 55.2939 85.0117 54.6961 86.0713 54.1236C85.7075 53.8438 85.2568 53.5894 84.7191 53.3604C84.1972 53.1188 83.699 52.8644 83.2246 52.5972C82.7501 52.3301 82.3469 52.0248 82.0147 51.6814C81.6984 51.338 81.5561 50.9055 81.5877 50.384C81.6194 49.9006 81.7933 49.449 82.1096 49.0293C82.4417 48.5968 82.8529 48.2343 83.3432 47.9417C83.8493 47.6492 84.4107 47.4393 85.0275 47.3121C85.6443 47.1722 86.2611 47.1594 86.8779 47.2739C87.2574 47.3375 87.5421 47.4456 87.7319 47.5983C87.9375 47.7382 88.064 47.8908 88.1114 48.0562C88.1747 48.2088 88.1668 48.3615 88.0877 48.5141C88.0086 48.654 87.8821 48.7622 87.7081 48.8385C87.55 48.9021 87.3444 48.9275 87.0914 48.9148C86.8541 48.8894 86.6011 48.7812 86.3322 48.5904C85.921 48.3106 85.5257 48.1643 85.1461 48.1516C84.7666 48.1262 84.4344 48.1961 84.1498 48.3615C83.8651 48.5268 83.6437 48.7685 83.4855 49.0865C83.3274 49.3918 83.272 49.7352 83.3195 50.1168C83.3669 50.4984 83.5251 50.8482 83.7939 51.1662C84.0628 51.4842 84.3791 51.7832 84.7428 52.063C85.1224 52.3429 85.5099 52.61 85.9052 52.8644C86.3164 53.1188 86.6881 53.3668 87.0202 53.6085C88.491 52.8326 89.9064 52.1266 91.2665 51.4906C92.6266 50.8546 93.7732 50.3331 94.7063 49.926C94.9751 49.7988 95.2124 49.7352 95.418 49.7352C95.6394 49.7225 95.7896 49.7543 95.8687 49.8306C95.9636 49.907 95.9794 50.0151 95.9162 50.155C95.8529 50.2822 95.6789 50.4094 95.3942 50.5366ZM86.8067 55.6691C86.8541 55.3893 86.8304 55.1349 86.7355 54.9059C85.755 55.4529 84.8061 56.0062 83.8888 56.5659C82.9715 57.1383 82.1413 57.698 81.398 58.2449C80.6546 58.7919 80.0299 59.3198 79.5239 59.8286C79.0178 60.3501 78.6857 60.8271 78.5275 61.2596C78.4484 61.4758 78.4247 61.6793 78.4564 61.8701C78.488 62.0736 78.575 62.2327 78.7173 62.3471C78.8438 62.4743 79.0257 62.557 79.2629 62.5952C79.4843 62.6333 79.7453 62.6015 80.0458 62.4998C80.3621 62.398 80.71 62.239 81.0896 62.0228C81.4533 61.8065 81.825 61.5521 82.2045 61.2596C82.5999 60.9797 82.9874 60.6681 83.3669 60.3246C83.7623 59.9812 84.134 59.6187 84.4819 59.2371C85.1936 58.4484 85.7392 57.7616 86.1187 57.1764C86.4983 56.604 86.7276 56.1016 86.8067 55.6691ZM101.368 49.8497C101.194 49.9642 100.965 50.1677 100.68 50.4603C100.412 50.7528 100.103 51.0772 99.7552 51.4334C99.4073 51.7895 99.0278 52.152 98.6166 52.5209C98.2054 52.8771 97.7784 53.1887 97.3355 53.4558C96.9085 53.7102 96.4657 53.8883 96.0071 53.9901C95.5643 54.0918 95.1294 54.0537 94.7023 53.8756C94.3228 53.723 94.0777 53.4622 93.9669 53.0933C93.8404 52.7245 93.8088 52.3428 93.8721 51.9485C93.9828 51.1599 94.2911 50.4285 94.7972 49.7543C95.3191 49.0802 95.9596 48.5078 96.7188 48.0371C97.4937 47.5538 98.3556 47.1976 99.3045 46.9686C100.253 46.7397 101.226 46.6824 102.222 46.7969C102.823 46.8605 103.385 47.0132 103.907 47.2549C104.429 47.4838 104.824 47.8272 105.093 48.2852C105.219 48.5014 105.243 48.6731 105.164 48.8003C105.085 48.9275 104.958 49.0038 104.784 49.0293C104.626 49.0547 104.444 49.0229 104.239 48.9339C104.049 48.8321 103.899 48.6668 103.788 48.4378C103.567 48.1071 103.29 47.859 102.958 47.6937C102.626 47.5156 102.27 47.4138 101.89 47.3884C101.4 47.3502 100.902 47.4266 100.396 47.6174C99.8897 47.7954 99.4073 48.0498 98.9487 48.3806C98.49 48.6986 98.071 49.0674 97.6914 49.4872C97.3118 49.907 97.0113 50.3331 96.7899 50.7656C96.7425 50.8546 96.6792 50.9755 96.6002 51.1281C96.5369 51.2807 96.4815 51.4461 96.4341 51.6242C96.3866 51.7895 96.355 51.9549 96.3392 52.1202C96.3392 52.2729 96.3787 52.3937 96.4578 52.4828C96.5211 52.5591 96.6713 52.5336 96.9085 52.4064C97.1616 52.2792 97.4542 52.1012 97.7863 51.8722C98.1184 51.6305 98.4663 51.357 98.8301 51.0518C99.2096 50.7465 99.5655 50.4539 99.8976 50.1741C100.246 49.8942 100.546 49.6462 100.799 49.43C101.052 49.2137 101.218 49.0738 101.297 49.0102C101.582 48.794 101.867 48.654 102.151 48.5904C102.436 48.5141 102.681 48.5014 102.887 48.5523C103.108 48.6032 103.266 48.7049 103.361 48.8576C103.472 49.0102 103.488 49.1883 103.409 49.3918C103.14 50.0405 102.974 50.6002 102.91 51.0708C102.847 51.5415 102.863 51.9358 102.958 52.2538C103.053 52.5591 103.219 52.8008 103.456 52.9788C103.693 53.1569 103.978 53.2778 104.31 53.3414C104.879 53.4431 105.551 53.405 106.326 53.2269C107.117 53.0361 107.908 52.7626 108.699 52.4064C109.505 52.0503 110.264 51.6496 110.976 51.2044C111.688 50.7592 112.257 50.3331 112.684 49.926C112.842 49.748 113.016 49.6335 113.206 49.5826C113.396 49.5317 113.546 49.5317 113.657 49.5826C113.783 49.6335 113.839 49.7352 113.823 49.8879C113.807 50.0278 113.68 50.1995 113.443 50.403C112.921 50.8991 112.289 51.3888 111.545 51.8722C110.818 52.3556 110.027 52.7753 109.173 53.1315C108.319 53.4876 107.433 53.7611 106.516 53.9519C105.615 54.1427 104.729 54.2 103.859 54.1236C103.148 54.0728 102.555 53.9201 102.08 53.6657C101.606 53.3986 101.258 53.0742 101.036 52.6926C100.831 52.2983 100.752 51.8595 100.799 51.3761C100.846 50.88 101.036 50.3712 101.368 49.8497Z" fill="#655F5F"/>
<path fill-rule="evenodd" clip-rule="evenodd" d="M47.2696 0H0.583618V2.59489H10.6419L24.7743 37.6809H48.3054L35.1236 2.59489H47.2696V0ZM56.8676 60.4709L61.5031 72.8093C63.3497 68.4002 65.0646 64.2874 66.6478 60.4709H70.6674L52.2038 105.78L33.954 60.4709H56.8676ZM79.9548 37.6809H75.9912C77.0053 35.1888 77.9325 32.9063 78.7733 30.8333C80.6711 26.1523 82.1261 22.4381 83.1382 19.6906C84.2769 16.8413 85.0993 14.6026 85.6054 12.9744C86.1115 11.3462 86.4278 10.176 86.5543 9.46368C86.6808 8.6496 86.7441 7.98816 86.7441 7.47936C86.7441 6.15648 86.238 5.18977 85.2258 4.57921C84.3402 3.86688 83.1382 3.35808 81.62 3.05281C80.2283 2.74753 78.71 2.59489 77.0653 2.59489H73.0799H72.5105V0H107.43V2.59489H105.912C102.875 2.59489 100.535 2.69665 98.89 2.90017C97.2453 3.00193 95.9168 3.45985 94.9046 4.27392C93.8925 4.98624 93.0068 6.15648 92.2477 7.78464C91.4886 9.4128 90.5397 11.6515 89.401 14.5008L79.9548 37.6809Z" fill="#655F5F"/>
</svg>
