<svg width="1440" height="113" viewBox="0 0 1440 113" fill="none" xmlns="http://www.w3.org/2000/svg">
<path d="M0 67H1440V113H0V67Z" fill="#B2A5F9"/>
<path d="M56.6313 0H160.76L218 67.8163V113H0V67.8163L56.6313 0Z" fill="#B2A5F9"/>
<path d="M72.5599 50.4647C72.9394 50.2358 73.3032 50.134 73.6511 50.1594C74.0148 50.1849 74.2758 50.2803 74.4339 50.4456C74.6079 50.5983 74.6316 50.7827 74.5051 50.999C74.3944 51.2152 74.0623 51.3996 73.5088 51.5523C73.3032 51.6413 73.0897 51.7622 72.8683 51.9148C72.6468 52.0547 72.4966 52.2392 72.4175 52.4681C72.3384 52.7352 72.4808 52.9451 72.8445 53.0978C73.2241 53.2504 73.7144 53.3458 74.3153 53.384C74.9479 53.4349 75.6201 53.4221 76.3317 53.3458C77.0592 53.2695 77.6918 53.1296 78.2295 52.926C78.4826 52.837 78.6645 52.8052 78.7752 52.8306C78.9017 52.8561 78.9729 52.9133 78.9887 53.0024C79.0045 53.0787 78.9729 53.1677 78.8938 53.2695C78.8305 53.3585 78.7356 53.4221 78.6091 53.4603C77.85 53.7528 77.0434 53.9691 76.1894 54.109C75.3354 54.2362 74.513 54.2426 73.7223 54.1281C72.9631 54.0136 72.4017 53.7846 72.038 53.4412C71.6742 53.0978 71.5556 52.7162 71.6821 52.2964C71.4133 52.5381 71.0732 52.8561 70.6621 53.2504C70.2509 53.632 69.816 54.0518 69.3573 54.5097C68.9145 54.9676 68.4559 55.4382 67.9814 55.9216C67.5228 56.3922 67.0958 56.8374 66.7004 57.2572C66.305 57.677 65.965 58.0458 65.6803 58.3638C65.3956 58.6818 65.2059 58.9108 65.111 59.0507C64.937 59.2288 64.7551 59.3751 64.5654 59.4896C64.3914 59.604 64.2016 59.6613 63.996 59.6613C63.7272 59.6613 63.5137 59.5977 63.3555 59.4705C63.1974 59.356 63.0708 59.2097 62.976 59.0316C62.8652 58.8536 62.7862 58.6628 62.7387 58.4592C62.6913 58.2557 62.6597 58.0649 62.6438 57.8868C62.5648 57.3908 62.5489 56.8565 62.5964 56.2841C62.6438 55.7117 62.7466 55.152 62.9048 54.6051C63.0471 54.0454 63.2448 53.5239 63.4978 53.0405C63.7351 52.5444 64.0276 52.1374 64.3756 51.8194C64.6286 51.5904 64.8975 51.4442 65.1821 51.3806C65.4668 51.3042 65.7199 51.2915 65.9413 51.3424C66.1627 51.3933 66.3287 51.5014 66.4394 51.6668C66.5501 51.8194 66.566 51.9975 66.4869 52.201C66.3446 52.5826 66.139 53.0342 65.8701 53.5557C65.6012 54.0645 65.3324 54.5987 65.0635 55.1584C64.8105 55.7054 64.5812 56.246 64.3756 56.7802C64.1858 57.3144 64.0751 57.7978 64.0435 58.2303C64.0435 58.2557 64.0435 58.3002 64.0435 58.3638C64.0435 58.4147 64.0514 58.4592 64.0672 58.4974C64.083 58.5356 64.1067 58.561 64.1384 58.5737C64.1858 58.5737 64.2491 58.5356 64.3281 58.4592C64.3756 58.4084 64.5575 58.2112 64.8738 57.8678C65.1901 57.5116 65.5854 57.0791 66.0599 56.5703C66.5501 56.0488 67.0958 55.4828 67.6967 54.8722C68.2977 54.2489 68.8908 53.6511 69.4759 53.0787C70.0769 52.4936 70.6462 51.9721 71.184 51.5141C71.7217 51.0435 72.1803 50.6937 72.5599 50.4647ZM78.613 52.0102C78.8977 51.794 79.1823 51.654 79.467 51.5904C79.7517 51.5141 79.9968 51.5014 80.2024 51.5523C80.4238 51.6032 80.582 51.7049 80.6769 51.8576C80.7876 52.0102 80.8034 52.1883 80.7243 52.3918C80.4554 53.0405 80.2894 53.6002 80.2261 54.0708C80.1629 54.5415 80.1787 54.9358 80.2736 55.2538C80.3685 55.5591 80.5345 55.8008 80.7717 55.9788C81.009 56.1569 81.2936 56.2778 81.6258 56.3414C82.1951 56.4431 82.8672 56.405 83.6422 56.2269C84.4329 56.0361 85.2237 55.7626 86.0144 55.4064C86.821 55.0503 87.5801 54.6496 88.2918 54.2044C89.0035 53.7592 89.5728 53.3331 89.9998 52.926C90.158 52.748 90.3319 52.6335 90.5217 52.5826C90.7115 52.5317 90.8617 52.5317 90.9724 52.5826C91.099 52.6335 91.1543 52.7352 91.1385 52.8879C91.1227 53.0278 90.9962 53.1995 90.7589 53.403C90.237 53.8991 89.6044 54.3888 88.8611 54.8722C88.1336 55.3556 87.3429 55.7753 86.4889 56.1315C85.6349 56.4876 84.7492 56.7611 83.832 56.9519C82.9305 57.1427 82.0449 57.2 81.175 57.1236C80.4634 57.0728 79.8624 56.8756 79.3721 56.5322C78.8977 56.176 78.5497 55.7499 78.3283 55.2538C78.1069 54.7577 78.0199 54.2235 78.0674 53.6511C78.099 53.0787 78.2809 52.5317 78.613 52.0102ZM79.6093 49.568C79.6726 49.3517 79.7912 49.1546 79.9652 48.9765C80.155 48.7984 80.3526 48.6521 80.5582 48.5376C80.7797 48.4232 80.9932 48.3596 81.1988 48.3468C81.4043 48.3214 81.5546 48.3659 81.6495 48.4804C81.7602 48.5822 81.7997 48.7602 81.7681 49.0146C81.7365 49.269 81.5941 49.6125 81.3411 50.045C81.1988 50.2358 81.009 50.3693 80.7717 50.4456C80.5345 50.5092 80.3131 50.522 80.1075 50.4838C79.9177 50.4456 79.7596 50.3502 79.6331 50.1976C79.5224 50.045 79.5145 49.8351 79.6093 49.568ZM104.71 53.403C104.473 53.6447 104.164 53.95 103.785 54.3189C103.405 54.6878 102.97 55.0821 102.48 55.5018C101.99 55.9216 101.452 56.3477 100.867 56.7802C100.298 57.2127 99.7046 57.6197 99.0878 58.0013C98.471 58.3702 97.8384 58.6882 97.19 58.9553C96.5416 59.2224 95.9011 59.4005 95.2685 59.4896C94.6991 59.5659 94.1219 59.5468 93.5367 59.4323C92.9674 59.3178 92.485 59.0571 92.0896 58.65C91.7892 58.3066 91.6152 57.925 91.5677 57.5052C91.5361 57.0855 91.5757 56.6657 91.6864 56.246C91.8129 55.8262 91.9868 55.4255 92.2083 55.0439C92.4455 54.6496 92.6985 54.3125 92.9674 54.0327C92.6511 54.0708 92.3269 54.0645 91.9948 54.0136C91.6626 53.9627 91.3463 53.88 91.0458 53.7656C90.7612 53.6384 90.5081 53.4857 90.2867 53.3076C90.0653 53.1168 89.923 52.9006 89.8597 52.6589C89.7965 52.4045 89.8439 52.1183 90.0021 51.8003C90.1602 51.4696 90.4686 51.1898 90.9272 50.9608C91.1012 50.8845 91.2752 50.84 91.4491 50.8272C91.6389 50.8145 91.805 50.8272 91.9473 50.8654C92.1055 50.9036 92.232 50.9672 92.3269 51.0562C92.4376 51.1325 92.5008 51.2279 92.5166 51.3424C92.5483 51.4569 92.5166 51.5586 92.4218 51.6477C92.3427 51.724 92.2399 51.8003 92.1134 51.8766C92.0027 51.9402 91.8999 51.9975 91.805 52.0484C91.7101 52.0992 91.6705 52.1438 91.6864 52.1819C91.718 52.3091 91.8366 52.43 92.0422 52.5444C92.2478 52.6462 92.485 52.748 92.7539 52.8497C93.0227 52.9515 93.2916 53.0469 93.5604 53.1359C93.8293 53.225 94.0428 53.3077 94.2009 53.384C94.5647 53.5748 94.794 53.791 94.8889 54.0327C94.9996 54.2616 95.0233 54.5097 94.9601 54.7768C94.8968 55.0312 94.7782 55.2983 94.6042 55.5782C94.4461 55.8453 94.2721 56.1188 94.0823 56.3986C93.9084 56.6657 93.7502 56.9265 93.6079 57.1809C93.4814 57.4353 93.4181 57.6706 93.4181 57.8868C93.4181 58.1031 93.4814 58.2748 93.6079 58.402C93.7502 58.5292 93.9242 58.6182 94.1298 58.6691C94.3354 58.7327 94.5647 58.7582 94.8177 58.7454C95.0708 58.7454 95.308 58.7264 95.5294 58.6882C96.0513 58.5864 96.589 58.402 97.1425 58.1349C97.7119 57.8678 98.2733 57.5561 98.8268 57.2C99.3804 56.8311 99.9181 56.4368 100.44 56.017C100.962 55.5972 101.444 55.1902 101.887 54.7959C102.33 54.4016 102.725 54.039 103.073 53.7083C103.437 53.3776 103.73 53.1168 103.951 52.926C104.141 52.7607 104.33 52.6589 104.52 52.6208C104.71 52.5699 104.86 52.5699 104.971 52.6208C105.082 52.6589 105.121 52.748 105.09 52.8879C105.074 53.0278 104.947 53.1995 104.71 53.403ZM93.9136 45.3513C94.4197 45.4149 94.91 45.4658 95.3844 45.5039C95.8431 45.5421 96.3017 45.5739 96.7603 45.5993C98.3418 45.6629 99.9313 45.6566 101.529 45.5802C103.11 45.5039 104.7 45.3958 106.297 45.2559C106.676 44.2256 107.08 43.2334 107.507 42.2794C107.934 41.3254 108.369 40.435 108.811 39.6082C109.254 38.7814 109.705 38.0309 110.164 37.3568C110.622 36.6699 111.089 36.0848 111.563 35.6014C111.895 35.2452 112.275 34.9845 112.702 34.8191C113.145 34.6538 113.548 34.6092 113.912 34.6856C114.276 34.7619 114.568 34.9654 114.79 35.2961C115.011 35.6268 115.082 36.1038 115.003 36.7271C114.924 37.2741 114.75 37.8719 114.481 38.5206C114.212 39.1694 113.88 39.8499 113.485 40.5622C113.089 41.2618 112.639 41.9805 112.133 42.7182C111.642 43.456 111.136 44.1874 110.614 44.9124C111.563 44.8361 112.591 44.7534 113.698 44.6644C114.821 44.5754 115.968 44.5054 117.138 44.4545C118.308 44.3909 119.471 44.3591 120.625 44.3591C121.795 44.3464 122.902 44.3846 123.946 44.4736C124.943 44.5754 125.852 44.728 126.674 44.9315C127.497 45.1223 128.185 45.3958 128.738 45.752C128.944 45.8919 129.007 46.0509 128.928 46.229C128.865 46.3943 128.73 46.5279 128.525 46.6296C128.319 46.7187 128.09 46.7441 127.837 46.706C127.584 46.6551 127.378 46.4897 127.22 46.2099C126.999 45.8028 126.579 45.4976 125.963 45.294C125.362 45.0778 124.634 44.9315 123.78 44.8552C122.847 44.7789 121.795 44.7662 120.625 44.817C119.471 44.8552 118.285 44.9252 117.067 45.0269C115.849 45.1287 114.639 45.2495 113.437 45.3894C112.251 45.5294 111.16 45.6438 110.164 45.7329C110.116 45.7456 110.061 45.752 109.998 45.752C109.492 46.4007 109.001 47.024 108.527 47.6218C108.052 48.2196 107.61 48.773 107.198 49.2818C106.929 49.8287 106.637 50.4647 106.321 51.1898C106.02 51.9148 105.72 52.6907 105.419 53.5175C105.119 54.3443 104.834 55.2029 104.565 56.0933C104.312 56.9837 104.091 57.8614 103.901 58.7264C103.695 59.5913 103.537 60.4181 103.426 61.2068C103.316 62.0081 103.276 62.7332 103.308 63.3819C103.339 64.3995 103.545 65.2326 103.925 65.8814C104.304 66.5301 104.897 67.0389 105.704 67.4078C105.988 67.5477 106.131 67.7003 106.131 67.8657C106.147 68.0311 106.06 68.1646 105.87 68.2664C105.68 68.3681 105.419 68.4063 105.087 68.3809C104.771 68.3554 104.431 68.2091 104.067 67.942C103.561 67.535 103.181 66.9435 102.928 66.1676C102.659 65.4044 102.509 64.5076 102.477 63.4773C102.43 62.4088 102.485 61.1813 102.644 59.7949C102.802 58.4211 103.039 56.971 103.355 55.4446C103.672 53.9182 104.051 52.3536 104.494 50.7509C104.953 49.1355 105.459 47.5646 106.012 46.0382C104.557 46.1145 103.094 46.1654 101.623 46.1908C100.153 46.2162 98.6502 46.1972 97.1162 46.1336C96.2305 46.1081 95.4398 46.0636 94.7439 46C94.0323 45.9364 93.4471 45.8537 92.9885 45.752C92.7038 45.6375 92.5456 45.4912 92.514 45.3131C92.4824 45.135 92.5298 44.9951 92.6563 44.8934C92.7829 44.7789 92.9647 44.7471 93.202 44.798C93.4392 44.8361 93.6764 45.0206 93.9136 45.3513ZM111.326 39.4365C110.788 40.2378 110.282 41.1219 109.808 42.0886C109.349 43.0426 108.93 44.0348 108.551 45.0651L109.238 45.0078C109.855 44.1302 110.456 43.2398 111.041 42.3366C111.627 41.4208 112.133 40.5368 112.56 39.6845C112.987 38.8832 113.248 38.2917 113.342 37.9101C113.453 37.5158 113.437 37.3122 113.295 37.2995C113.153 37.2868 112.908 37.4649 112.56 37.8338C112.212 38.2026 111.801 38.7369 111.326 39.4365ZM108.645 45.8664C108.582 45.8664 108.519 45.8728 108.456 45.8855C108.392 45.8855 108.329 45.8855 108.266 45.8855C108.203 46.0382 108.147 46.1908 108.1 46.3434C108.052 46.4961 108.005 46.6487 107.957 46.8014L108.645 45.8664ZM113.637 51.8003C113.558 52.0166 113.408 52.3409 113.186 52.7734C112.965 53.2059 112.72 53.6638 112.451 54.1472C112.198 54.6305 111.953 55.1075 111.715 55.5782C111.494 56.0488 111.352 56.4304 111.288 56.723C111.241 56.9265 111.241 57.0728 111.288 57.1618C111.352 57.2381 111.439 57.2763 111.549 57.2763C111.66 57.2763 111.787 57.2445 111.929 57.1809C112.087 57.1046 112.229 57.0219 112.356 56.9329C112.704 56.7039 113.068 56.3859 113.447 55.9788C113.827 55.5718 114.183 55.1648 114.515 54.7577C114.863 54.3507 115.163 53.9882 115.416 53.6702C115.685 53.3394 115.867 53.1359 115.962 53.0596C116.231 52.8815 116.507 52.7861 116.792 52.7734C117.077 52.7607 117.322 52.8052 117.527 52.907C117.749 52.996 117.899 53.1359 117.978 53.3267C118.057 53.5048 118.034 53.702 117.907 53.9182C117.306 54.9231 117.006 55.7372 117.006 56.3604C117.006 56.971 117.282 57.3272 117.836 57.4289C118.215 57.4544 118.627 57.3971 119.069 57.2572C119.512 57.1173 119.963 56.9265 120.422 56.6848C120.896 56.4304 121.362 56.1442 121.821 55.8262C122.28 55.4955 122.723 55.1648 123.15 54.8341C123.577 54.4906 123.972 54.1535 124.336 53.8228C124.699 53.4921 125.016 53.1932 125.285 52.926C125.443 52.748 125.617 52.6335 125.806 52.5826C125.996 52.5317 126.147 52.5317 126.257 52.5826C126.384 52.6335 126.439 52.7352 126.423 52.8879C126.407 53.0278 126.281 53.1995 126.044 53.403C125.538 53.8991 124.952 54.4334 124.288 55.0058C123.64 55.5782 122.944 56.106 122.201 56.5894C121.457 57.0728 120.675 57.4734 119.852 57.7914C119.03 58.0967 118.192 58.2303 117.338 58.1921C116.8 58.1667 116.365 58.0713 116.033 57.9059C115.717 57.7406 115.487 57.5307 115.345 57.2763C115.203 57.0219 115.147 56.7357 115.179 56.4177C115.226 56.087 115.353 55.7372 115.558 55.3683C115.195 55.7372 114.815 56.1061 114.42 56.4749C114.04 56.8438 113.637 57.1618 113.21 57.4289C112.799 57.6833 112.364 57.8614 111.905 57.9632C111.447 58.0522 110.98 58.0013 110.506 57.8105C110.173 57.6833 109.928 57.5116 109.77 57.2954C109.612 57.0791 109.509 56.8438 109.462 56.5894C109.399 56.3223 109.383 56.0615 109.414 55.8071C109.446 55.54 109.493 55.292 109.557 55.063C109.667 54.6433 109.818 54.2298 110.007 53.8228C110.181 53.4158 110.363 53.0342 110.553 52.678C110.759 52.3091 110.956 51.9848 111.146 51.7049C111.336 51.4124 111.51 51.1771 111.668 50.999C111.905 50.7446 112.158 50.5856 112.427 50.522C112.696 50.4456 112.933 50.452 113.139 50.541C113.36 50.6301 113.518 50.7827 113.613 50.999C113.724 51.2152 113.732 51.4823 113.637 51.8003ZM124.288 57.3526C124.13 57.0982 124.035 56.8184 124.004 56.5131C123.956 56.1951 123.956 55.8771 124.004 55.5591C124.035 55.2411 124.114 54.9294 124.241 54.6242C124.352 54.3062 124.486 54.0136 124.644 53.7465C124.945 53.2504 125.332 52.7988 125.806 52.3918C126.297 51.9848 126.842 51.654 127.443 51.3996C128.044 51.1452 128.693 50.9799 129.389 50.9036C130.084 50.8272 130.796 50.8718 131.524 51.0371C131.729 51.1516 131.824 51.2724 131.808 51.3996C131.808 51.5268 131.737 51.635 131.595 51.724C131.468 51.8003 131.294 51.8448 131.073 51.8576C130.851 51.8576 130.638 51.8003 130.432 51.6858C129.958 51.495 129.531 51.4442 129.151 51.5332C128.772 51.6095 128.424 51.7812 128.108 52.0484C127.807 52.3028 127.546 52.6271 127.325 53.0214C127.103 53.403 126.921 53.8037 126.779 54.2235C126.653 54.6432 126.558 55.0503 126.494 55.4446C126.431 55.8389 126.407 56.1696 126.423 56.4368C126.455 56.7675 126.589 56.971 126.827 57.0473C127.064 57.1109 127.348 57.0092 127.681 56.742C127.886 56.5767 128.084 56.3668 128.274 56.1124C128.463 55.8453 128.622 55.5718 128.748 55.292C128.89 55.0121 129.001 54.7514 129.08 54.5097C129.175 54.2553 129.23 54.0518 129.246 53.8991C128.756 53.7719 128.416 53.6193 128.226 53.4412C128.036 53.2504 127.949 53.066 127.965 52.8879C127.981 52.7098 128.068 52.5572 128.226 52.43C128.384 52.3028 128.566 52.2328 128.772 52.2201C128.977 52.2074 129.183 52.2773 129.389 52.43C129.594 52.5826 129.752 52.8497 129.863 53.2313C130.369 53.2949 130.915 53.3331 131.5 53.3458C132.101 53.3458 132.702 53.3331 133.303 53.3076C133.904 53.2822 134.489 53.2377 135.058 53.1741C135.643 53.1105 136.181 53.0278 136.671 52.926C137.225 52.8116 137.589 52.7861 137.763 52.8497C137.952 52.9006 138.032 52.9833 138 53.0978C137.968 53.2122 137.858 53.3331 137.668 53.4603C137.494 53.5875 137.328 53.6638 137.17 53.6892C136.664 53.791 136.11 53.88 135.509 53.9564C134.924 54.02 134.315 54.0645 133.682 54.0899C133.05 54.1154 132.417 54.1217 131.785 54.109C131.168 54.0963 130.583 54.0581 130.029 53.9945C130.029 54.2744 129.982 54.5796 129.887 54.9104C129.808 55.2284 129.689 55.5527 129.531 55.8834C129.389 56.2014 129.199 56.5131 128.962 56.8184C128.74 57.1109 128.479 57.3653 128.179 57.5816C127.926 57.7724 127.609 57.9314 127.23 58.0586C126.866 58.1731 126.494 58.2303 126.115 58.2303C125.751 58.2303 125.403 58.1603 125.071 58.0204C124.739 57.8805 124.478 57.6579 124.288 57.3526ZM150.394 53.5366C149.983 53.7274 149.493 53.9627 148.923 54.2426C148.354 54.5097 147.737 54.8086 147.073 55.1393C146.425 55.4573 145.729 55.8008 144.986 56.1696C144.258 56.5385 143.523 56.9265 142.779 57.3335C143.475 58.1349 143.72 58.9999 143.515 59.9284C143.309 60.857 142.803 61.8173 141.996 62.8095C141.569 63.331 141.071 63.8271 140.502 64.2977C139.948 64.7684 139.363 65.1818 138.746 65.5379C138.146 65.9068 137.537 66.1994 136.92 66.4156C136.319 66.6318 135.757 66.74 135.236 66.74C134.793 66.74 134.389 66.6955 134.026 66.6064C133.646 66.5174 133.33 66.3775 133.077 66.1867C132.808 66.0086 132.618 65.7733 132.507 65.4807C132.381 65.2009 132.349 64.8638 132.413 64.4695C132.507 63.8971 132.816 63.2992 133.338 62.6759C133.86 62.0527 134.516 61.423 135.307 60.787C136.097 60.1637 136.991 59.5404 137.987 58.9172C138.984 58.2939 140.012 57.6961 141.071 57.1236C140.708 56.8438 140.257 56.5894 139.719 56.3604C139.197 56.1188 138.699 55.8644 138.225 55.5972C137.75 55.3301 137.347 55.0248 137.015 54.6814C136.698 54.338 136.556 53.9055 136.588 53.384C136.619 52.9006 136.793 52.449 137.11 52.0293C137.442 51.5968 137.853 51.2343 138.343 50.9417C138.849 50.6492 139.411 50.4393 140.028 50.3121C140.644 50.1722 141.261 50.1594 141.878 50.2739C142.257 50.3375 142.542 50.4456 142.732 50.5983C142.937 50.7382 143.064 50.8908 143.111 51.0562C143.175 51.2088 143.167 51.3615 143.088 51.5141C143.009 51.654 142.882 51.7622 142.708 51.8385C142.55 51.9021 142.344 51.9275 142.091 51.9148C141.854 51.8894 141.601 51.7812 141.332 51.5904C140.921 51.3106 140.526 51.1643 140.146 51.1516C139.767 51.1262 139.434 51.1961 139.15 51.3615C138.865 51.5268 138.644 51.7685 138.486 52.0865C138.327 52.3918 138.272 52.7352 138.319 53.1168C138.367 53.4984 138.525 53.8482 138.794 54.1662C139.063 54.4842 139.379 54.7832 139.743 55.063C140.122 55.3429 140.51 55.61 140.905 55.8644C141.316 56.1188 141.688 56.3668 142.02 56.6085C143.491 55.8326 144.906 55.1266 146.267 54.4906C147.627 53.8546 148.773 53.3331 149.706 52.926C149.975 52.7988 150.212 52.7352 150.418 52.7352C150.639 52.7225 150.79 52.7543 150.869 52.8306C150.964 52.907 150.979 53.0151 150.916 53.155C150.853 53.2822 150.679 53.4094 150.394 53.5366ZM141.807 58.6691C141.854 58.3893 141.83 58.1349 141.736 57.9059C140.755 58.4529 139.806 59.0062 138.889 59.5659C137.972 60.1383 137.141 60.698 136.398 61.2449C135.655 61.7919 135.03 62.3198 134.524 62.8286C134.018 63.3501 133.686 63.8271 133.528 64.2596C133.448 64.4758 133.425 64.6793 133.456 64.8701C133.488 65.0736 133.575 65.2327 133.717 65.3471C133.844 65.4743 134.026 65.557 134.263 65.5952C134.484 65.6333 134.745 65.6015 135.046 65.4998C135.362 65.398 135.71 65.239 136.09 65.0228C136.453 64.8065 136.825 64.5521 137.205 64.2596C137.6 63.9797 137.987 63.6681 138.367 63.3246C138.762 62.9812 139.134 62.6187 139.482 62.2371C140.194 61.4484 140.739 60.7616 141.119 60.1764C141.498 59.604 141.728 59.1016 141.807 58.6691ZM156.368 52.8497C156.194 52.9642 155.965 53.1677 155.68 53.4603C155.412 53.7528 155.103 54.0772 154.755 54.4334C154.407 54.7895 154.028 55.152 153.617 55.5209C153.205 55.8771 152.778 56.1887 152.336 56.4558C151.909 56.7102 151.466 56.8883 151.007 56.9901C150.564 57.0918 150.129 57.0537 149.702 56.8756C149.323 56.723 149.078 56.4622 148.967 56.0933C148.84 55.7245 148.809 55.3428 148.872 54.9485C148.983 54.1599 149.291 53.4285 149.797 52.7543C150.319 52.0802 150.96 51.5078 151.719 51.0371C152.494 50.5538 153.356 50.1976 154.305 49.9686C155.253 49.7397 156.226 49.6824 157.222 49.7969C157.823 49.8605 158.385 50.0132 158.907 50.2549C159.429 50.4838 159.824 50.8272 160.093 51.2852C160.219 51.5014 160.243 51.6731 160.164 51.8003C160.085 51.9275 159.958 52.0038 159.784 52.0293C159.626 52.0547 159.444 52.0229 159.239 51.9339C159.049 51.8321 158.899 51.6668 158.788 51.4378C158.567 51.1071 158.29 50.859 157.958 50.6937C157.626 50.5156 157.27 50.4138 156.89 50.3884C156.4 50.3502 155.902 50.4266 155.396 50.6174C154.89 50.7954 154.407 51.0498 153.949 51.3806C153.49 51.6986 153.071 52.0674 152.691 52.4872C152.312 52.907 152.011 53.3331 151.79 53.7656C151.742 53.8546 151.679 53.9755 151.6 54.1281C151.537 54.2807 151.482 54.4461 151.434 54.6242C151.387 54.7895 151.355 54.9549 151.339 55.1202C151.339 55.2729 151.379 55.3937 151.458 55.4828C151.521 55.5591 151.671 55.5336 151.909 55.4064C152.162 55.2792 152.454 55.1012 152.786 54.8722C153.118 54.6305 153.466 54.357 153.83 54.0518C154.21 53.7465 154.565 53.4539 154.898 53.1741C155.246 52.8942 155.546 52.6462 155.799 52.43C156.052 52.2137 156.218 52.0738 156.297 52.0102C156.582 51.794 156.867 51.654 157.151 51.5904C157.436 51.5141 157.681 51.5014 157.887 51.5523C158.108 51.6032 158.266 51.7049 158.361 51.8576C158.472 52.0102 158.488 52.1883 158.409 52.3918C158.14 53.0405 157.974 53.6002 157.91 54.0708C157.847 54.5415 157.863 54.9358 157.958 55.2538C158.053 55.5591 158.219 55.8008 158.456 55.9788C158.693 56.1569 158.978 56.2778 159.31 56.3414C159.879 56.4431 160.551 56.405 161.326 56.2269C162.117 56.0361 162.908 55.7626 163.699 55.4064C164.505 55.0503 165.264 54.6496 165.976 54.2044C166.688 53.7592 167.257 53.3331 167.684 52.926C167.842 52.748 168.016 52.6335 168.206 52.5826C168.396 52.5317 168.546 52.5317 168.657 52.5826C168.783 52.6335 168.839 52.7352 168.823 52.8879C168.807 53.0278 168.68 53.1995 168.443 53.403C167.921 53.8991 167.289 54.3888 166.545 54.8722C165.818 55.3556 165.027 55.7753 164.173 56.1315C163.319 56.4876 162.433 56.7611 161.516 56.9519C160.615 57.1427 159.729 57.2 158.859 57.1236C158.148 57.0728 157.555 56.9201 157.08 56.6657C156.606 56.3986 156.258 56.0742 156.036 55.6926C155.831 55.2983 155.752 54.8595 155.799 54.3761C155.846 53.88 156.036 53.3712 156.368 52.8497Z" fill="white"/>
<path fill-rule="evenodd" clip-rule="evenodd" d="M102.27 3H55.5836V5.59489H65.6419L79.7743 40.6809H103.305L90.1236 5.59489H102.27V3ZM111.868 63.4709L116.503 75.8093C118.35 71.4002 120.065 67.2874 121.648 63.4709H125.667L107.204 108.78L88.954 63.4709H111.868ZM134.955 40.6809H130.991C132.005 38.1888 132.932 35.9063 133.773 33.8333C135.671 29.1523 137.126 25.4381 138.138 22.6906C139.277 19.8413 140.099 17.6026 140.605 15.9744C141.111 14.3462 141.428 13.176 141.554 12.4637C141.681 11.6496 141.744 10.9882 141.744 10.4794C141.744 9.15648 141.238 8.18977 140.226 7.57921C139.34 6.86688 138.138 6.35808 136.62 6.05281C135.228 5.74753 133.71 5.59489 132.065 5.59489H128.08H127.511V3H162.43V5.59489H160.912C157.875 5.59489 155.535 5.69665 153.89 5.90017C152.245 6.00193 150.917 6.45985 149.905 7.27392C148.892 7.98624 148.007 9.15648 147.248 10.7846C146.489 12.4128 145.54 14.6515 144.401 17.5008L134.955 40.6809Z" fill="white"/>
</svg>
